<?xml version="1.0" encoding="UTF-8"?>
<svg width="21.538mm" height="12.879mm" version="1.1" viewBox="0 0 21.538 12.879" xmlns="http://www.w3.org/2000/svg" xmlns:cc="http://creativecommons.org/ns#" xmlns:dc="http://purl.org/dc/elements/1.1/" xmlns:rdf="http://www.w3.org/1999/02/22-rdf-syntax-ns#">
 <title>aws cc BINs</title>
 <metadata>
  <rdf:RDF>
   <cc:Work rdf:about="">
    <dc:format>image/svg+xml</dc:format>
    <dc:type rdf:resource="http://purl.org/dc/dcmitype/StillImage"/>
    <dc:title>aws cc BINs</dc:title>
   </cc:Work>
  </rdf:RDF>
 </metadata>
 <g transform="translate(-111.37 -161.14)">
  <g transform="matrix(.1097 0 0 .1097 105.64 137.66)">
   <g transform="matrix(.83508 0 0 .83508 28.082 48.216)">
    <path class="st0" d="m107.55 256.73c0 2.4161 0.2612 4.3751 0.71829 5.8117 0.5224 1.4366 1.1754 3.0038 2.0896 4.7016 0.3265 0.5224 0.4571 1.0448 0.4571 1.5019 0 0.653-0.3918 1.306-1.2407 1.959l-4.1139 2.7426c-0.5877 0.39179-1.1754 0.58769-1.6978 0.58769-0.653 0-1.306-0.32649-1.959-0.91419-0.9142-0.9795-1.6978-2.0243-2.3508-3.0691-0.653-1.1101-1.306-2.3508-2.0243-3.8527-5.0934 6.0076-11.493 9.0114-19.198 9.0114-5.4852 0-9.8602-1.5672-13.06-4.7016-3.1997-3.1344-4.8322-7.3136-4.8322-12.538 0-5.5505 1.959-10.056 5.9423-13.452 3.9833-3.3956 9.2726-5.0934 15.998-5.0934 2.2202 0 4.5057 0.19589 6.9218 0.52239 2.4161 0.3265 4.8975 0.8489 7.5095 1.4366v-4.7669c0-4.9628-1.0448-8.4237-3.0691-10.448-2.0896-2.0243-5.6158-3.0038-10.644-3.0038-2.2855 0-4.6363 0.2612-7.0524 0.8489-2.4161 0.58769-4.7669 1.306-7.0524 2.2202-1.0448 0.4571-1.8284 0.7183-2.2855 0.8489-0.45709 0.1306-0.78359 0.1959-1.0448 0.1959-0.9142 0-1.3713-0.653-1.3713-2.0243v-3.1997c0-1.0448 0.1306-1.8284 0.45709-2.2855 0.3265-0.4571 0.9142-0.9142 1.8284-1.3713 2.2855-1.1754 5.0281-2.1549 8.2278-2.9385 3.1997-0.84889 6.5953-1.2407 10.187-1.2407 7.7707 0 13.452 1.7631 17.109 5.2893 3.5915 3.5262 5.4199 8.8808 5.4199 16.064v21.157zm-26.512 9.9255c2.1549 0 4.3751-0.3918 6.7259-1.1754 2.3508-0.7836 4.4404-2.2202 6.2035-4.1792 1.0448-1.2407 1.8284-2.612 2.2202-4.1792s0.65299-3.4609 0.65299-5.6811v-2.7426c-1.8937-0.4571-3.918-0.8489-6.0076-1.1101-2.0896-0.2612-4.1139-0.3918-6.1382-0.3918-4.3751 0-7.5748 0.8489-9.7296 2.612s-3.1997 4.2445-3.1997 7.5095c0 3.0691 0.78359 5.3546 2.4161 6.9218 1.5672 1.6325 3.8527 2.4161 6.8565 2.4161zm52.436 7.0524c-1.1754 0-1.959-0.1959-2.4814-0.653-0.52239-0.3918-0.97949-1.306-1.3713-2.5467l-15.345-50.477c-0.3918-1.306-0.58769-2.1549-0.58769-2.612 0-1.0448 0.52239-1.6325 1.5672-1.6325h6.3994c1.2407 0 2.0896 0.1959 2.5467 0.653 0.5224 0.39179 0.91419 1.306 1.306 2.5467l10.97 43.228 10.187-43.228c0.3265-1.306 0.7183-2.1549 1.2407-2.5467 0.5224-0.3918 1.4366-0.653 2.612-0.653h5.224c1.2407 0 2.0896 0.1959 2.612 0.653 0.5224 0.39179 0.97949 1.306 1.2407 2.5467l10.317 43.751 11.297-43.751c0.3918-1.306 0.84889-2.1549 1.306-2.5467 0.5224-0.3918 1.3713-0.653 2.5467-0.653h6.0729c1.0448 0 1.6325 0.5224 1.6325 1.6325 0 0.3265-0.0653 0.653-0.1306 1.0448-0.0653 0.39179-0.1959 0.91419-0.4571 1.6325l-15.737 50.477c-0.39179 1.306-0.84889 2.1549-1.3713 2.5467s-1.3713 0.653-2.4814 0.653h-5.6158c-1.2407 0-2.0896-0.1959-2.612-0.653-0.5224-0.4571-0.9795-1.306-1.2407-2.612l-10.121-42.118-10.056 42.053c-0.3265 1.306-0.7183 2.1549-1.2407 2.612-0.5224 0.4571-1.4366 0.653-2.612 0.653zm83.91 1.7631c-3.3956 0-6.7912-0.3918-10.056-1.1754-3.265-0.78359-5.8117-1.6325-7.5095-2.612-1.0448-0.5877-1.7631-1.2407-2.0243-1.8284-0.2612-0.5877-0.3918-1.2407-0.3918-1.8284v-3.3303c0-1.3713 0.5224-2.0243 1.5019-2.0243 0.3918 0 0.7836 0.0653 1.1754 0.1959s0.97949 0.3918 1.6325 0.653c2.2202 0.97949 4.6363 1.7631 7.183 2.2855 2.612 0.52239 5.1587 0.78359 7.7707 0.78359 4.1139 0 7.3136-0.71829 9.5338-2.1549 2.2202-1.4366 3.3956-3.5262 3.3956-6.2035 0-1.8284-0.58769-3.3303-1.7631-4.571-1.1754-1.2407-3.3956-2.3508-6.5953-3.3956l-9.4684-2.9385c-4.7669-1.5019-8.2931-3.7221-10.448-6.6606-2.1549-2.8732-3.265-6.0729-3.265-9.4684 0-2.7426 0.5877-5.1587 1.7631-7.2483s2.7426-3.918 4.7016-5.3546c1.959-1.5019 4.1792-2.612 6.7912-3.3956 2.612-0.78359 5.3546-1.1101 8.2278-1.1101 1.4366 0 2.9385 0.0653 4.3751 0.2612 1.5019 0.1959 2.8732 0.4571 4.2445 0.71829 1.306 0.3265 2.5467 0.653 3.7221 1.0448s2.0896 0.78359 2.7426 1.1754c0.91419 0.5224 1.5672 1.0448 1.959 1.6325 0.39179 0.5224 0.58769 1.2407 0.58769 2.1549v3.0691c0 1.3713-0.52239 2.0896-1.5019 2.0896-0.5224 0-1.3713-0.26119-2.4814-0.78359-3.7221-1.6978-7.9012-2.5467-12.538-2.5467-3.7221 0-6.6606 0.5877-8.6848 1.8284-2.0243 1.2407-3.0691 3.1344-3.0691 5.8117 0 1.8284 0.653 3.3956 1.959 4.6363 1.306 1.2407 3.7221 2.4814 7.183 3.5915l9.2726 2.9385c4.7016 1.5019 8.0972 3.5915 10.121 6.2688s3.0038 5.7464 3.0038 9.142c0 2.8079-0.5877 5.3546-1.6978 7.5748-1.1754 2.2202-2.7426 4.1792-4.7669 5.7464-2.0243 1.6325-4.4404 2.8079-7.2483 3.6568-2.9385 0.9142-6.0076 1.3713-9.3378 1.3713z" fill="#252f3e" stroke-width=".653"/>
    <g transform="matrix(.653 0 0 .653 51.127 213.37)" clip-rule="evenodd" fill="#f90" fill-rule="evenodd">
     <path class="st1" d="m273.5 143.7c-32.9 24.3-80.7 37.2-121.8 37.2-57.6 0-109.5-21.3-148.7-56.7-3.1-2.8-0.3-6.6 3.4-4.4 42.4 24.6 94.7 39.5 148.8 39.5 36.5 0 76.6-7.6 113.5-23.2 5.5-2.5 10.2 3.6 4.8 7.6z"/>
     <path class="st1" d="m287.2 128.1c-4.2-5.4-27.8-2.6-38.5-1.3-3.2 0.4-3.7-2.4-0.8-4.5 18.8-13.2 49.7-9.4 53.3-5 3.6 4.5-1 35.4-18.6 50.2-2.7 2.3-5.3 1.1-4.1-1.9 4-9.9 12.9-32.2 8.7-37.5z"/>
    </g>
   </g>
  </g>
 </g>
 <style type="text/css">.st0{fill:#252F3E;}
	.st1{fill-rule:evenodd;clip-rule:evenodd;fill:#FF9900;}</style>
</svg>
