<?xml version="1.0" encoding="UTF-8"?>
<svg width="45.041mm" height="10.507mm" version="1.1" viewBox="0 0 45.041 10.507" xmlns="http://www.w3.org/2000/svg" xmlns:cc="http://creativecommons.org/ns#" xmlns:dc="http://purl.org/dc/elements/1.1/" xmlns:rdf="http://www.w3.org/1999/02/22-rdf-syntax-ns#">
 <title>app store CC BINs</title>
 <metadata>
  <rdf:RDF>
   <cc:Work rdf:about="">
    <dc:format>image/svg+xml</dc:format>
    <dc:type rdf:resource="http://purl.org/dc/dcmitype/StillImage"/>
    <dc:title>app store CC BINs</dc:title>
   </cc:Work>
  </rdf:RDF>
 </metadata>
 <g transform="translate(-104.27 -102.88)">
  <g transform="matrix(.037113 0 0 .037113 108.81 144.53)">
   <g transform="translate(-701.76 -558.55)">
    <g id="icon" transform="translate(579.33 -563.61)">
     <path d="m192.3 150.6c-0.3-35.8 29.3-53.2 30.6-54-16.8-24.4-42.8-27.8-51.9-28.1-21.8-2.3-43 13.1-54.1 13.1-11.3 0-28.5-12.8-46.9-12.5-23.7 0.4-46 14.1-58.1 35.5-25.1 43.5-6.4 107.5 17.7 142.7 12.1 17.2 26.1 36.5 44.6 35.8 18-0.7 24.8-11.5 46.5-11.5 21.6 0 27.9 11.5 46.7 11.1 19.4-0.3 31.5-17.3 43.2-34.7 13.9-19.7 19.5-39.2 19.7-40.2-0.5-0.2-37.6-14.4-38-57.2"/>
     <path d="m156.8 45.4c9.7-12.1 16.3-28.6 14.5-45.4-14 0.6-31.6 9.7-41.7 21.6-8.9 10.5-16.9 27.6-14.9 43.7 15.8 1.2 32-8 42.1-19.9"/>
    </g>
    <g transform="translate(908.33 -490.64)">
     <path d="m124.5 150.6h-25.2l-13.8-43.4h-48l-13.1 43.4h-24.5l47.5-147.7h29.4zm-43.1-61.6-12.5-38.5c-1.3-4-3.8-13.2-7.4-27.8h-0.5c-1.5 6.3-3.8 15.6-7 27.8l-12.3 38.5z"/>
     <path d="m246.6 96.1c0 18.1-4.9 32.4-14.8 42.9-8.8 9.4-19.8 14-32.8 14-14.1 0-24.2-5-30.4-15.1v55.9h-23.7v-114.7c0-11.4-0.3-23-0.9-35h20.8l1.3 16.9h0.4c7.9-12.7 19.9-19.1 35.9-19.1 12.6 0 23 5 31.4 14.9 8.6 10 12.8 23 12.8 39.3zm-24.1 0.8c0-10.4-2.3-18.9-7-25.6-5.1-7-12-10.5-20.6-10.5-5.8 0-11.1 2-15.9 5.8-4.7 3.9-7.9 8.9-9.3 15.2-0.7 2.9-1.1 5.3-1.1 7.2v17.8c0 7.7 2.4 14.3 7.1 19.6s10.9 8 18.5 8c8.9 0 15.8-3.5 20.8-10.3 5-6.9 7.5-15.9 7.5-27.2z"/>
     <path d="m369 96.1c0 18.1-4.9 32.4-14.8 42.9-8.8 9.4-19.8 14-32.8 14-14.1 0-24.2-5-30.4-15.1v55.9h-23.7v-114.7c0-11.4-0.3-23-0.9-35h20.8l1.3 16.9h0.4c7.9-12.7 19.9-19.1 35.9-19.1 12.6 0 23 5 31.4 14.9 8.6 10 12.8 23 12.8 39.3zm-24.1 0.8c0-10.4-2.3-18.9-7-25.6-5.1-7-12-10.5-20.6-10.5-5.8 0-11.1 2-15.9 5.8-4.7 3.9-7.8 8.9-9.3 15.2-0.7 2.9-1.1 5.3-1.1 7.2v17.8c0 7.7 2.4 14.3 7.1 19.6s10.9 8 18.5 8c8.9 0 15.9-3.5 20.8-10.3 5.1-6.9 7.5-15.9 7.5-27.2z"/>
     <path d="m506 109.2c0 12.6-4.4 22.8-13.1 30.7-9.6 8.6-23 12.9-40.2 12.9-15.9 0-28.6-3.1-38.2-9.2l5.5-19.7c10.4 6.1 21.8 9.2 34.2 9.2 8.9 0 15.9-2 20.8-6 5-4 7.5-9.4 7.5-16.1 0-6-2.1-11-6.1-15.1-4.1-4.1-10.9-7.9-20.4-11.4-26.1-9.7-39-23.8-39-42.3 0-12.1 4.6-22 13.7-29.8 9.1-7.7 21.2-11.6 36.3-11.6 13.4 0 24.6 2.3 33.5 7l-6 19.2c-8.4-4.5-17.8-6.8-28.4-6.8-8.3 0-14.9 2.1-19.6 6.1-3.9 3.7-5.9 8.1-5.9 13.4 0 5.8 2.3 10.7 6.8 14.4 3.9 3.5 11.1 7.3 21.5 11.4 12.7 5.1 22 11.1 28 18 6.1 6.9 9.1 15.5 9.1 25.7"/>
     <path d="m584.4 61.9h-26.1v51.7c0 13.1 4.6 19.7 13.8 19.7 4.2 0 7.7-0.4 10.5-1.1l0.7 18c-4.7 1.7-10.8 2.6-18.4 2.6-9.4 0-16.6-2.9-21.9-8.6s-7.9-15.3-7.9-28.7v-53.7h-15.5v-17.7h15.5v-19.5l23.2-7v26.5h26.1v17.8"/>
     <path d="m701.8 96.5c0 16.4-4.7 29.8-14 40.3-9.8 10.8-22.8 16.2-39 16.2-15.6 0-28.1-5.2-37.4-15.5s-13.9-23.4-13.9-39.2c0-16.5 4.8-30 14.3-40.5 9.6-10.5 22.5-15.8 38.7-15.8 15.6 0 28.2 5.2 37.7 15.6 9.1 10 13.6 23 13.6 38.9zm-24.5 0.5c0-9.8-2.1-18.1-6.3-25.1-5-8.5-12.1-12.7-21.3-12.7-9.5 0-16.8 4.2-21.7 12.7-4.3 7-6.3 15.5-6.3 25.6 0 9.8 2.1 18.2 6.3 25.1 5.1 8.5 12.3 12.7 21.5 12.7 9 0 16.1-4.3 21.3-12.9 4.3-7.2 6.5-15.6 6.5-25.4z"/>
     <path d="m778.8 64.9c-2.3-0.4-4.8-0.6-7.5-0.6-8.3 0-14.8 3.1-19.3 9.4-3.9 5.5-5.9 12.6-5.9 21v55.9h-23.7v-73c0-12.3-0.2-23.5-0.7-33.5h20.6l0.9 20.4h0.7c2.5-7 6.4-12.7 11.8-16.9 5.3-3.8 11-5.7 17.1-5.7 2.2 0 4.2 0.2 5.9 0.4l0.1 22.6"/>
     <path d="m884.6 92.3c0 4.2-0.3 7.8-0.9 10.7h-71c0.3 10.5 3.7 18.6 10.3 24.1 6 4.9 13.7 7.4 23.2 7.4 10.5 0 20.1-1.7 28.7-5l3.7 16.4c-10.1 4.4-22 6.6-35.7 6.6-16.5 0-29.5-4.9-38.9-14.6s-14.1-22.8-14.1-39.1c0-16 4.4-29.4 13.2-40.1 9.2-11.4 21.6-17.1 37.2-17.1 15.3 0 27 5.7 34.8 17.1 6.3 9.2 9.5 20.3 9.5 33.6zm-22.6-6.1c0.2-7-1.4-13.1-4.6-18.2-4.1-6.6-10.4-9.9-18.8-9.9-7.7 0-14 3.2-18.8 9.6-3.9 5.1-6.3 11.3-7 18.4z"/>
    </g>
   </g>
  </g>
 </g>
 <style>.st0{fill:#fff}</style>
</svg>
