<svg width="158" height="34" viewBox="0 0 158 34" xmlns="http://www.w3.org/2000/svg"><title>global/logos/horizontal/nordvpn</title><g fill="none"><path d="M54.217 10.997l6.692 11.34V10.996h2.827v17.995h-2.261l-6.88-11.715V28.99h-2.922V10.997h2.545zm24.129 13.227c0 2.814-1.885 5.066-5.561 5.066-3.675 0-5.466-2.157-5.466-5.065v-4.316c0-2.815 1.884-5.066 5.466-5.066 3.676 0 5.56 2.157 5.56 5.065v4.316zm-8.01-.188c0 1.876.847 2.815 2.449 2.815 1.697 0 2.45-1.032 2.45-2.815v-4.128c0-1.782-.754-2.814-2.45-2.814-1.696 0-2.45 1.032-2.45 2.815v4.127zm18.754-6.098c-.377-.282-.85-.375-1.32-.375-1.79 0-2.827 1.314-3.016 3.564v7.882h-3.11V15.03h2.64l.187 2.346c.848-1.783 1.98-2.533 3.394-2.533.565 0 1.036.093 1.508.374l-.283 2.721zm10.084-1.876v-5.066h3.016v18.013h-2.64l-.188-1.313a4.728 4.728 0 0 1-3.77 1.5c-2.826 0-4.335-2.064-4.335-5.253v-3.847c0-3.283 1.509-5.253 4.524-5.253 1.225 0 2.45.374 3.393 1.218v.001zm0 2.533a2.725 2.725 0 0 0-2.545-1.219c-1.602 0-2.356.937-2.356 2.907v3.753c0 1.876.754 2.815 2.262 2.815 1.036 0 1.979-.47 2.639-1.313v-6.943z" fill="#000"/><path d="M114.037 28.99h-4.142l-5.555-17.993h4.426l3.2 13.214 3.201-13.214h4.425l-5.554 17.994zm7.815-17.993V28.99h3.954v-6.093h2.73c3.39 0 5.367-2.249 5.367-5.904 0-3.749-2.071-5.998-5.649-5.998h-6.402zm6.308 8.81h-2.26v-5.53h2.26c1.224 0 1.789.75 1.789 2.718s-.565 2.812-1.79 2.812h.001zm17.512 1.124v-9.934h3.483V28.99h-2.73l-6.214-10.31v10.31h-3.484V10.997h2.918l6.027 9.934zM15.598 16.652l3.664-8.792 5.732 13.936 2.348-4.209 7.236 16.088c3.289-3.741 5.167-8.511 5.167-13.562C39.934 9.263 31.195.19 20.201.003 9.21-.184.188 8.514 0 19.46v.747c0 4.958 1.785 9.728 5.168 13.47l8.738-19.736 1.692 2.712z" fill="#0F6EAA"/></g></svg>