<?xml version="1.0" encoding="UTF-8"?>
<svg width="48.548mm" height="38.75mm" version="1.1" viewBox="0 0 48.548 38.75" xmlns="http://www.w3.org/2000/svg" xmlns:cc="http://creativecommons.org/ns#" xmlns:dc="http://purl.org/dc/elements/1.1/" xmlns:rdf="http://www.w3.org/1999/02/22-rdf-syntax-ns#">
 <metadata>
  <rdf:RDF>
   <cc:Work rdf:about="">
    <dc:format>image/svg+xml</dc:format>
    <dc:type rdf:resource="http://purl.org/dc/dcmitype/StillImage"/>
    <dc:title/>
   </cc:Work>
  </rdf:RDF>
 </metadata>
 <g transform="translate(-64.923 -146.56)">
  <g transform="matrix(.09847 0 0 .09847 21.865 125.57)">
   <g transform="matrix(.46026 0 0 .46026 394.41 296.66)">
    <g transform="translate(93.132 -181.49)">
     <path transform="translate(-36.903 -22.5)" d="m581.77 778.44c-242.4-18.447-531.47-206.27-516.75-399.66s294.69-373.42 537.09-354.98 381.93 379.86 367.21 573.25-145.15 199.83-387.55 181.38z" fill="#f2f4f4"/>
     <ellipse cx="565.19" cy="756" rx="506" ry="31" fill="#3f3d56"/>
     <ellipse cx="565.19" cy="755.5" rx="431" ry="20.5" opacity=".1"/>
     <ellipse cx="212.19" cy="836.5" rx="212.19" ry="18.5" fill="#3f3d56"/>
     <ellipse cx="212.19" cy="836.2" rx="180.74" ry="12.234" opacity=".1"/>
     <rect x="196.19" y="162" width="752" height="590" fill="#3f3d56"/>
     <g fill="#f2f2f2">
      <path transform="translate(-36.903 -22.5)" d="m600.54 265.13h-185.52a2.2514 2.2514 0 1 1 0-4.5028h185.52a2.2514 2.2514 0 0 1 0 4.5028z"/>
      <path transform="translate(-36.903 -22.5)" d="m803.62 289.89h-291.79a2.2514 2.2514 0 0 1 0-4.5029h291.79a2.2514 2.2514 0 1 1 0 4.5029z"/>
      <path transform="translate(-36.903 -22.5)" d="m601.44 314.66h-185.52a2.2514 2.2514 0 1 1 0-4.5029h185.52a2.2514 2.2514 0 1 1 0 4.5029z"/>
      <path transform="translate(-36.903 -22.5)" d="m803.62 315.11h-185.52a2.2514 2.2514 0 0 1 0-4.5029h185.52a2.2514 2.2514 0 1 1 0 4.5029z"/>
      <path transform="translate(-36.903 -22.5)" d="m601.89 339.43h-185.52a2.2514 2.2514 0 0 1 0-4.5029h185.52a2.2514 2.2514 0 1 1 0 4.5029z"/>
      <path transform="translate(-36.903 -22.5)" d="m602.34 364.19h-185.52a2.2514 2.2514 0 0 1 0-4.5029h185.52a2.2514 2.2514 0 1 1 0 4.5029z"/>
      <path transform="translate(-36.903 -22.5)" d="m686.55 265.58h-53.134a2.2514 2.2514 0 0 1 0-4.5029h53.134a2.2514 2.2514 0 1 1 0 4.5029z"/>
      <path transform="translate(-36.903 -22.5)" d="m686.55 339.43h-53.134a2.2514 2.2514 0 0 1 0-4.5029h53.134a2.2514 2.2514 0 1 1 0 4.5029z"/>
      <path transform="translate(-36.903 -22.5)" d="m686.55 363.74h-53.134a2.2514 2.2514 0 1 1 0-4.5028h53.134a2.2514 2.2514 0 1 1 0 4.5028z"/>
      <path transform="translate(-36.903 -22.5)" d="m775.7 363.74h-53.134a2.2514 2.2514 0 0 1 0-4.5028h53.134a2.2514 2.2514 0 1 1 0 4.5028z"/>
      <path transform="translate(-36.903 -22.5)" d="m467.71 289.89h-53.134a2.2514 2.2514 0 0 1 0-4.5029h53.134a2.2514 2.2514 0 0 1 0 4.5029z"/>
      <path transform="translate(-36.903 -22.5)" d="m600.77 629.86h-185.52a2.2514 2.2514 0 0 1 0-4.5029h185.52a2.2514 2.2514 0 0 1 0 4.5029z"/>
      <path transform="translate(-36.903 -22.5)" d="m599.87 679.39h-185.52a2.2514 2.2514 0 1 1 0-4.5029h185.52a2.2514 2.2514 0 0 1 0 4.5029z"/>
      <path transform="translate(-36.903 -22.5)" d="m600.32 704.16h-185.52a2.2514 2.2514 0 1 1 0-4.5028h185.52a2.2514 2.2514 0 1 1 0 4.5028z"/>
      <path transform="translate(-36.903 -22.5)" d="m679.57 679.84h-53.134a2.2514 2.2514 0 0 1 0-4.5029h53.134a2.2514 2.2514 0 0 1 0 4.5029z"/>
      <path transform="translate(-36.903 -22.5)" d="m679.57 704.16h-53.134a2.2514 2.2514 0 0 1 0-4.5028h53.134a2.2514 2.2514 0 1 1 0 4.5028z"/>
      <path transform="translate(-36.903 -22.5)" d="m768.72 679.84h-53.134a2.2514 2.2514 0 1 1 0-4.5029h53.134a2.2514 2.2514 0 0 1 0 4.5029z"/>
      <path transform="translate(-36.903 -22.5)" d="m803.85 654.63h-291.79a2.2514 2.2514 0 0 1 0-4.5029h291.79a2.2514 2.2514 0 0 1 0 4.5029z"/>
      <path transform="translate(-36.903 -22.5)" d="m467.93 654.63h-53.134a2.2514 2.2514 0 0 1 0-4.5029h53.134a2.2514 2.2514 0 0 1 0 4.5029z"/>
      <path transform="translate(-36.903 -22.5)" d="m803.85 729.37h-291.79a2.2514 2.2514 0 1 1 0-4.5028h291.79a2.2514 2.2514 0 0 1 0 4.5028z"/>
      <path transform="translate(-36.903 -22.5)" d="m467.93 729.37h-53.134a2.2514 2.2514 0 1 1 0-4.5028h53.134a2.2514 2.2514 0 1 1 0 4.5028z"/>
     </g>
     <g fill="#5a8dee">
      <polygon points="447.01 472.28 519.06 543.42 535.27 527.21 480.79 472.72 535.72 417.79 519.06 401.13"/>
      <polygon points="697.37 472.28 625.33 543.42 609.12 527.21 663.6 472.72 608.67 417.79 625.33 401.13"/>
      <circle cx="216.19" cy="177" r="9"/>
      <circle cx="240.19" cy="177" r="9"/>
      <circle cx="264.19" cy="177" r="9"/>
     </g>
     <rect x="196.19" y="192" width="752" height="3" opacity=".1"/>
     <path transform="translate(-36.903 -22.5)" d="m159.52 773.59a43.126 43.126 0 0 1-8.178 3.5025c-5.0788 1.3874-10.507 0.8784-15.637 2.0627-2.1003 0.4849-4.3863 1.4992-5.0542 3.5487-0.48995 1.5033 0.0431 3.1267 0.55347 4.6232 5.6685 16.62 9.0852 34.266 18.125 49.321a74.641 74.641 0 0 0 13.993 16.988c2.0551 1.8523 4.384 3.6643 7.1354 3.9549a7.2477 7.2477 0 0 0 7.3706-10.182c-0.81056-1.8011-2.3173-3.1962-3.289-4.9157a18.757 18.757 0 0 1-1.8195-6.9907c-0.89312-7.1083-1.7535-14.538 0.70942-21.265 1.6519-4.5122 4.6821-8.3589 7.2064-12.448s4.6217-8.7719 4.06-13.544c-0.38332-3.2566-1.9719-6.2368-3.65-9.054-1.6815-2.8227-5.0047-10.408-8.3829-11.35-3.5067-0.9778-10.084 4.1819-13.142 5.7492z" fill="#2f2e41"/>
     <path transform="translate(-36.903 -22.5)" d="m251.96 831a14.019 14.019 0 0 1-0.66321 4.7453c-1.0576 2.7925-3.681 4.7061-5.0363 7.3668-1.885 3.7006-1.0306 8.1737 0.21823 12.135 0.78295 2.4832 1.8099 5.067 3.9125 6.6027a12.893 12.893 0 0 0 5.9538 1.9072c18.036 2.4962 36.358 1.064 54.559 1.587 3.3173 0.0953 6.8294 0.21147 9.7252-1.4097s4.686-5.6968 2.7165-8.3679c-1.7685-2.3985-5.2654-2.3762-8.2421-2.5176a33.912 33.912 0 0 1-20.913-8.6148 15.112 15.112 0 0 1-2.9334-3.3766 20.753 20.753 0 0 1-1.5344-3.5176 156.8 156.8 0 0 0-9.0835-20.119c-0.97877-1.8149-2.087-3.705-3.906-4.6763a10.323 10.323 0 0 0-4.2393-0.92554c-4.5363-0.294-16.283-1.8378-19.791 1.6896-3.2411 3.2593-0.67081 13.352-0.74267 17.491z" fill="#2f2e41"/>
     <circle cx="242.97" cy="376.72" r="28.975" fill="#fbbebe"/>
     <path transform="translate(-36.903 -22.5)" d="m253.71 423.15c-1.7234 4.6139-4.6467 8.9471-8.9004 11.43l40.075 8.1747a42.453 42.453 0 0 1-0.56181-17.869 10.3 10.3 0 0 0 0.23975-4.409c-0.75354-2.9075-4.0265-4.3069-6.9549-4.9745-7.3141-1.6673-13.782-2.5614-20.579-5.7917-2.0775 3.5566-1.7866 9.339-3.3183 13.44z" fill="#fbbebe"/>
     <g fill="#2f2e41">
      <path transform="translate(-36.903 -22.5)" d="m244.47 423.73a31.338 31.338 0 0 1 27.313 0.71368c5.1378 2.7075 9.3919 6.7943 13.572 10.826 3.8526 3.7167 7.9624 7.9724 8.2359 13.319 0.13245 2.5899-0.67591 5.1229-1.0841 7.6838a25.766 25.766 0 0 0 13.78 26.469c3.1836 5.3034 3.8406 11.729 3.8895 17.914 0.185 23.436-7.2092 47.161-1.9304 69.995 1.2394 5.3612 3.1616 10.554 4.2323 15.951 1.3868 6.991 1.3184 14.18 2.0439 21.27a95.266 95.266 0 0 0 5.1132 22.495c-1.744 2.7737-5.3736 3.8373-8.6423 3.6126s-6.3252-1.6431-9.2419-3.1357c-14.123-7.2273-27.059-16.757-41.687-22.9-9.6776-4.0637-19.987-6.5949-29.376-11.288s-18.12-12.142-20.99-22.238c-1.2412-4.3655-1.3176-8.9651-1.3854-13.503-0.28534-19.114-0.55046-38.436 3.61-57.094 3.669-16.454 10.741-32.194 12.284-48.981 0.50223-5.4642 0.51295-11.314 3.5659-15.873 4.3152-6.4446 13.632-8.1137 16.698-15.238z"/>
      <path transform="translate(-36.903 -22.5)" d="m263.39 399.63c1.7074-2.2268 5.0002-2.5305 7.7279-1.8718s5.2426 2.0645 7.9974 2.5986a4.6754 4.6754 0 0 0 3.7432-0.52575 5.4443 5.4443 0 0 0 1.6155-3.5703 68.163 68.163 0 0 0 0.67089-17.38 5.1465 5.1465 0 0 1 0.15877-2.4374c0.682-1.6434 2.7627-2.0346 4.4621-2.5618a13.316 13.316 0 0 0 9.0129-13.633 5.4209 5.4209 0 0 0-1.6567-3.7406c-1.1752-0.95765-2.8201-1.0165-4.3361-1.0287q-11.683-0.0938-23.367 6e-3c-2.8828 0.0246-5.9103 0.0955-8.4094 1.5328-1.8477 1.0626-3.2217 2.773-4.8805 4.1115-4.3262 3.4911-10.178 4.2014-15.441 5.9907a15.308 15.308 0 0 0-6.7675 4.0356c-1.7504 1.9996-2.5919 4.9731-1.4926 7.3926a26.252 26.252 0 0 0 1.8868 2.9039c3.1046 4.9642 1.0378 11.403 1.5014 17.24 0.57892 7.2884 11.365 19.112 18.679 20.836 11.808 2.7844 4.9861-15.113 8.8949-19.898z"/>
      <path transform="translate(-36.903 -22.5)" d="m247.04 719.18c0.74512 5.3217 1.7007 10.662 1.4452 16.029-0.35664 7.4936-3.0591 14.714-3.5587 22.199-0.37315 5.5908 0.48989 11.242-0.28652 16.791-0.49715 3.5532-1.6558 6.9785-2.3732 10.494a43.395 43.395 0 0 0 6.9731 33.265 5.4479 5.4479 0 0 0 2.0234 1.961 5.7137 5.7137 0 0 0 2.5079 0.3318 179.95 179.95 0 0 0 25.17-2.2875 2.4143 2.4143 0 0 0 1.6162-0.71311 2.2657 2.2657 0 0 0 0.351-0.954c1.5438-7.936-1.9768-15.893-2.872-23.928-0.95593-8.5797 1.1027-17.177 3.1461-25.565a113.55 113.55 0 0 1 3.4674-12.228c0.9877-2.6974 2.1805-5.3209 3.0366-8.0628a61.46 61.46 0 0 0 2.202-13.203q0.89161-10.575 0.94476-21.199a88.958 88.958 0 0 0-1.6651-20.01c-1.878-8.338-5.7238-16.081-9.5359-23.73a15.029 15.029 0 0 0-5.6178 2.6701 125.38 125.38 0 0 1-15.35 8.4806c-3.5666 1.6568-10.522 2.8334-12.786 6.2858-2.2323 3.4046-0.792 10.351-0.62145 14.106q0.43903 9.6676 1.7823 19.266z"/>
     </g>
     <path transform="translate(-36.903 -22.5)" d="m247.04 719.18c0.74512 5.3217 1.7007 10.662 1.4452 16.029-0.35664 7.4936-3.0591 14.714-3.5587 22.199-0.37315 5.5908 0.48989 11.242-0.28652 16.791-0.49715 3.5532-1.6558 6.9785-2.3732 10.494a43.395 43.395 0 0 0 6.9731 33.265 5.4479 5.4479 0 0 0 2.0234 1.961 5.7137 5.7137 0 0 0 2.5079 0.3318 179.95 179.95 0 0 0 25.17-2.2875 2.4143 2.4143 0 0 0 1.6162-0.71311 2.2657 2.2657 0 0 0 0.351-0.954c1.5438-7.936-1.9768-15.893-2.872-23.928-0.95593-8.5797 1.1027-17.177 3.1461-25.565a113.55 113.55 0 0 1 3.4674-12.228c0.9877-2.6974 2.1805-5.3209 3.0366-8.0628a61.46 61.46 0 0 0 2.202-13.203q0.89161-10.575 0.94476-21.199a88.958 88.958 0 0 0-1.6651-20.01c-1.878-8.338-5.7238-16.081-9.5359-23.73a15.029 15.029 0 0 0-5.6178 2.6701 125.38 125.38 0 0 1-15.35 8.4806c-3.5666 1.6568-10.522 2.8334-12.786 6.2858-2.2323 3.4046-0.792 10.351-0.62145 14.106q0.43903 9.6676 1.7823 19.266z" opacity=".1"/>
     <path transform="translate(-36.903 -22.5)" d="m207.86 605.52c-3.8478 10.359 1.8082 21.554 6.722 31.452 12.106 24.386 20.513 50.407 28.874 76.317 0.62635 1.9408 1.2522 4.0582 0.55393 5.9743a7.8254 7.8254 0 0 1-2.8218 3.347c-5.7655 4.3792-13.107 5.9387-19.975 8.2298a90.184 90.184 0 0 0-18.943 8.88c-4.9768 3.0839-9.6389 6.6439-14.292 10.198l-14.812 11.312a9.903 9.903 0 0 0-2.4758 2.3966c-1.4286 2.2413-0.84344 5.1673-0.13218 7.7283a131.43 131.43 0 0 0 7.2521 19.792 6.911 6.911 0 0 0 2.63 3.4466c2.3119 1.2424 5.1397-0.405 6.9052-2.3471s3.2924-4.3589 5.7811-5.1927c2.4857-0.83278 5.2216 0.17573 7.8177-0.18871 4.1987-0.58943 6.9862-4.4572 10.013-7.4265 12.365-12.131 33.01-11.251 46.612-21.977a59.228 59.228 0 0 1 6.231-4.8675c2.2995-1.3593 4.9073-2.1053 7.2932-3.3067 7.2566-3.6541 11.819-11.209 14.262-18.957s3.1407-15.928 4.8969-23.861c0.90786-4.1009 2.1029-8.1577 2.5068-12.338a66.094 66.094 0 0 0-0.25308-11.666l-4.9081-60.715c-0.3996-4.9433-0.79987-9.8924-1.5757-14.791-14.577 0.5211-29.143 1.1075-43.728 1.28-11.606 0.13717-23.424 0.94848-34.436-2.7191z" fill="#2f2e41"/>
     <path transform="translate(-36.903 -22.5)" d="m202.51 619.72c1.9774 3.1801 6.7902 3.1144 10.104 1.3709s5.8888-4.6726 9.2107-6.4012c4.4639-2.3228 9.7461-2.2355 14.776-2.0934 7.9636 0.22492 16.025 0.46432 23.687 2.6467 7.9249 2.2573 15.64 6.6033 23.834 5.7363 1.4259-0.15087 2.985-0.55979 3.7611-1.7655a5.5445 5.5445 0 0 0 0.61966-2.8358l0.26794-7.159a6.4641 6.4641 0 0 0-0.57-3.6253 6.0816 6.0816 0 0 0-2.7159-2.0794c-11.663-5.6461-24.965-6.6974-37.915-7.1411q-9.8746-0.33828-19.757-0.27827c-5.591 0.0341-12.303-0.77486-17.739 0.71906-7.2951 2.005-11.265 16.954-7.5635 22.906z" fill="#2f2e41"/>
     <path transform="translate(-36.903 -22.5)" d="m275.74 432.23c-15.282-0.13537-29.131-10.223-44.412-10.468a11.514 11.514 0 0 0-5.3926 0.93046c-2.1293 1.0726-3.5293 3.1467-5.1468 4.8983-4.5183 4.8928-11.061 7.5053-15.703 12.281-4.3523 4.4779-6.7729 11.15-5.0546 17.153s8.2035 10.608 14.279 9.1652a36.801 36.801 0 0 1 14.337-19.479 72.887 72.887 0 0 1 11.205-5.8821c6.8679-3.1117 14.548-6.2828 21.718-3.9503a30.638 30.638 0 0 1 7.4092 4.0403l11.954 8.03c-1.3929-5.494-2.6454-11.656-5.1933-16.718z" fill="#5a8dee"/>
     <path transform="translate(-36.903 -22.5)" d="m212.55 460.87c-2.0293 2.5316 0.894 6.1996 0.44656 9.4132-0.29726 2.1351-2.0543 3.7654-2.786 5.7931-0.75791 2.1004-0.356 4.427-0.64344 6.6413a28.489 28.489 0 0 1-1.2751 4.7296 84.975 84.975 0 0 0-2.6864 14.026l-2.6749 19.976a75.681 75.681 0 0 0-0.846 9.0779 27.107 27.107 0 0 1-0.45211 6.7868c-0.59232 2.183-1.9039 4.0928-2.7862 6.1755s-1.2913 4.602-0.0994 6.5244c-3.9914 3.3246-5.1783 9.8538-2.3873 14.235a7.8994 7.8994 0 0 1 1.2301 2.2652 5.8198 5.8198 0 0 1-0.54176 3.3403l-2.7047 7.2066c-0.69232 1.8447-0.91128 4.6531 1.0135 5.0742a17.006 17.006 0 0 0-3.6513 5.7668 6.8662 6.8662 0 0 0 0.97247 6.5056 8.2888 8.2888 0 0 1 1.6944 2.0563 5.4727 5.4727 0 0 1-0.19586 3.2432 11.906 11.906 0 0 0 1.473 9.3334 8.3715 8.3715 0 0 0 8.4185 3.6085c5.4104-1.2203 10.272-3.1467 15.728-2.1457 11.746 2.1553 23.53 4.3199 34.906 7.952 12.984 4.1454 25.556 10.224 39.126 11.5a3.7978 3.7978 0 0 0 2.6166-0.407 3.9307 3.9307 0 0 0 1.21-2.4876q2.097-9.8324 4.194-19.665a202.36 202.36 0 0 0 3.8552-22.028c0.47742-4.7812 0.61351-9.5892 0.7493-14.392l1.0808-38.231a38.197 38.197 0 0 0-2.2-16.62l-6.2175-19.848c-3.5481-11.327-11.688-21.371-14.586-32.882-1.8342-7.285-3.1891-15.103-8.1079-20.781-7.0124-8.0949-19.145-9.354-29.764-7.9622-4.7973 0.62876-9.6356 1.7138-13.785 4.2018-4.7982 2.8768-8.3331 7.4086-11.753 11.836-2.8184 3.649-5.687 6.5826-8.5708 10.18z" fill="#5a8dee"/>
     <path transform="translate(-36.903 -22.5)" d="m237.35 573.32c0.87491 3.7726 2.7123 7.2511 3.837 10.957 1.8844 6.2088 1.7244 12.896 3.6051 19.106 0.78937 2.6065 1.933 5.109 2.4996 7.7728 1.3209 6.2106-0.60773 12.636-3.0035 18.516s-5.3135 11.678-6.0912 17.98c-0.54778 4.4385 0.23913 9.4501 3.6602 12.331 3.5517 2.9904 8.7131 2.7879 13.339 2.39a14.016 14.016 0 0 0 4.8412-1.0081c3.5377-1.6736 5.0277-5.8598 5.8546-9.685 2.7713-12.819 1.9796-26.106 1.1742-39.197l-2.1061-34.234c-0.40547-6.5908-0.83988-13.318-2.8708-19.646-0.73878-2.302-2.0265-6.9538-4.1292-8.4237-2.0826-1.4558-8.0299-1.5207-10.609-1.6418-12.098-0.56814-11.962 16.317-10.002 24.785z" fill="#fbbebe"/>
     <path transform="translate(-36.903 -22.5)" d="m250.75 446.92c-2.4707-1.2938-5.5836-0.736-7.9718 0.70446a24.568 24.568 0 0 0-5.9719 5.7982c-5.3389 6.5169-10.991 13.995-10.199 22.382 0.29689 3.1447 1.501 6.1209 2.3174 9.1723 3.5794 13.38-0.37874 27.53 0.0754 41.373 0.26243 7.9987 2.0029 15.866 3.7363 23.679 0.35375 1.5945 0.92034 3.4404 2.4628 3.9773 1.1587 0.40334 2.4103-0.11521 3.5572-0.55127a28.371 28.371 0 0 1 25.963 3.2723c2.865-1.5287 1.7914-6.3626 1.1491-9.5458-1.9084-9.4577 0.68218-19.214 3.8284-28.335s6.9106-18.23 7.4318-27.865c0.59061-10.916-3.0288-21.571-6.5999-31.903-0.77948-2.2553-1.6313-4.6202-3.4386-6.1783a13.665 13.665 0 0 0-5.2029-2.377c-3.7931-1.1211-7.6336-1.7686-11.138-3.6036z" fill="#2f2e41"/>
    </g>
   </g>
  </g>
 </g>
</svg>
